<mxfile host="Electron" agent="Mozilla/5.0 (Windows NT 10.0; Win64; x64) AppleWebKit/537.36 (KHTML, like Gecko) draw.io/27.0.9 Chrome/134.0.6998.205 Electron/35.4.0 Safari/537.36" version="27.0.9">
  <diagram name="Page-1" id="SfWBs3JkV3Z8lRS9MWPO">
    <mxGraphModel dx="2828" dy="4501" grid="1" gridSize="5" guides="1" tooltips="1" connect="1" arrows="1" fold="1" page="1" pageScale="1" pageWidth="850" pageHeight="1100" math="0" shadow="0">
      <root>
        <mxCell id="0" />
        <mxCell id="1" parent="0" />
        <mxCell id="chh-d9PAMTH2HjGcglh3-1" value="" style="sketch=0;points=[[0.5,0,0],[1,0.5,0],[0.5,1,0],[0,0.5,0],[0.145,0.145,0],[0.8555,0.145,0],[0.855,0.8555,0],[0.145,0.855,0]];verticalLabelPosition=bottom;html=1;verticalAlign=top;aspect=fixed;align=center;pointerEvents=1;shape=mxgraph.cisco19.rect;prIcon=router;fillColor=#FAFAFA;strokeColor=#005073;" vertex="1" parent="1">
          <mxGeometry x="430" y="-2105" width="50" height="50" as="geometry" />
        </mxCell>
        <mxCell id="chh-d9PAMTH2HjGcglh3-11" value="" style="edgeStyle=orthogonalEdgeStyle;rounded=0;orthogonalLoop=1;jettySize=auto;html=1;" edge="1" parent="1" source="chh-d9PAMTH2HjGcglh3-2" target="chh-d9PAMTH2HjGcglh3-8">
          <mxGeometry relative="1" as="geometry">
            <Array as="points">
              <mxPoint x="625" y="-1935" />
              <mxPoint x="625" y="-1802" />
              <mxPoint x="630" y="-1802" />
            </Array>
          </mxGeometry>
        </mxCell>
        <mxCell id="chh-d9PAMTH2HjGcglh3-2" value="" style="sketch=0;points=[[0.5,0,0],[1,0.5,0],[0.5,1,0],[0,0.5,0],[0.145,0.145,0],[0.8555,0.145,0],[0.855,0.8555,0],[0.145,0.855,0]];verticalLabelPosition=bottom;html=1;verticalAlign=top;aspect=fixed;align=center;pointerEvents=1;shape=mxgraph.cisco19.rect;prIcon=router;fillColor=#FAFAFA;strokeColor=#005073;" vertex="1" parent="1">
          <mxGeometry x="570" y="-1960" width="50" height="50" as="geometry" />
        </mxCell>
        <mxCell id="chh-d9PAMTH2HjGcglh3-12" value="" style="edgeStyle=orthogonalEdgeStyle;rounded=0;orthogonalLoop=1;jettySize=auto;html=1;" edge="1" parent="1" source="chh-d9PAMTH2HjGcglh3-3" target="chh-d9PAMTH2HjGcglh3-7">
          <mxGeometry relative="1" as="geometry" />
        </mxCell>
        <mxCell id="chh-d9PAMTH2HjGcglh3-3" value="" style="sketch=0;points=[[0.5,0,0],[1,0.5,0],[0.5,1,0],[0,0.5,0],[0.145,0.145,0],[0.8555,0.145,0],[0.855,0.8555,0],[0.145,0.855,0]];verticalLabelPosition=bottom;html=1;verticalAlign=top;aspect=fixed;align=center;pointerEvents=1;shape=mxgraph.cisco19.rect;prIcon=router;fillColor=#FAFAFA;strokeColor=#005073;" vertex="1" parent="1">
          <mxGeometry x="225" y="-1980" width="50" height="50" as="geometry" />
        </mxCell>
        <mxCell id="chh-d9PAMTH2HjGcglh3-7" value="" style="sketch=0;points=[[0.5,0,0],[1,0.5,0],[0.5,1,0],[0,0.5,0],[0.145,0.145,0],[0.8555,0.145,0],[0.855,0.8555,0],[0.145,0.855,0]];verticalLabelPosition=bottom;html=1;verticalAlign=top;aspect=fixed;align=center;pointerEvents=1;shape=mxgraph.cisco19.rect;prIcon=router;fillColor=#FAFAFA;strokeColor=#005073;" vertex="1" parent="1">
          <mxGeometry x="220" y="-1695" width="50" height="50" as="geometry" />
        </mxCell>
        <mxCell id="chh-d9PAMTH2HjGcglh3-8" value="" style="sketch=0;points=[[0.5,0,0],[1,0.5,0],[0.5,1,0],[0,0.5,0],[0.145,0.145,0],[0.8555,0.145,0],[0.855,0.8555,0],[0.145,0.855,0]];verticalLabelPosition=bottom;html=1;verticalAlign=top;aspect=fixed;align=center;pointerEvents=1;shape=mxgraph.cisco19.rect;prIcon=router;fillColor=#FAFAFA;strokeColor=#005073;" vertex="1" parent="1">
          <mxGeometry x="605" y="-1695" width="50" height="50" as="geometry" />
        </mxCell>
        <mxCell id="chh-d9PAMTH2HjGcglh3-15" value="" style="sketch=0;points=[[0.015,0.015,0],[0.985,0.015,0],[0.985,0.985,0],[0.015,0.985,0],[0.25,0,0],[0.5,0,0],[0.75,0,0],[1,0.25,0],[1,0.5,0],[1,0.75,0],[0.75,1,0],[0.5,1,0],[0.25,1,0],[0,0.75,0],[0,0.5,0],[0,0.25,0]];verticalLabelPosition=bottom;html=1;verticalAlign=top;aspect=fixed;align=center;pointerEvents=1;shape=mxgraph.cisco19.rect;prIcon=l3_switch;fillColor=#FAFAFA;strokeColor=#005073;" vertex="1" parent="1">
          <mxGeometry x="265" y="-1570" width="50" height="50" as="geometry" />
        </mxCell>
        <mxCell id="chh-d9PAMTH2HjGcglh3-16" value="" style="sketch=0;points=[[0.015,0.015,0],[0.985,0.015,0],[0.985,0.985,0],[0.015,0.985,0],[0.25,0,0],[0.5,0,0],[0.75,0,0],[1,0.25,0],[1,0.5,0],[1,0.75,0],[0.75,1,0],[0.5,1,0],[0.25,1,0],[0,0.75,0],[0,0.5,0],[0,0.25,0]];verticalLabelPosition=bottom;html=1;verticalAlign=top;aspect=fixed;align=center;pointerEvents=1;shape=mxgraph.cisco19.rect;prIcon=l3_switch;fillColor=#FAFAFA;strokeColor=#005073;" vertex="1" parent="1">
          <mxGeometry x="635" y="-1565" width="50" height="50" as="geometry" />
        </mxCell>
        <mxCell id="chh-d9PAMTH2HjGcglh3-17" value="" style="sketch=0;points=[[0.015,0.015,0],[0.985,0.015,0],[0.985,0.985,0],[0.015,0.985,0],[0.25,0,0],[0.5,0,0],[0.75,0,0],[1,0.25,0],[1,0.5,0],[1,0.75,0],[0.75,1,0],[0.5,1,0],[0.25,1,0],[0,0.75,0],[0,0.5,0],[0,0.25,0]];verticalLabelPosition=bottom;html=1;verticalAlign=top;aspect=fixed;align=center;pointerEvents=1;shape=mxgraph.cisco19.rect;prIcon=l2_switch;fillColor=#FAFAFA;strokeColor=#005073;" vertex="1" parent="1">
          <mxGeometry x="705" y="-1465" width="50" height="50" as="geometry" />
        </mxCell>
        <mxCell id="chh-d9PAMTH2HjGcglh3-19" value="" style="sketch=0;points=[[0.015,0.015,0],[0.985,0.015,0],[0.985,0.985,0],[0.015,0.985,0],[0.25,0,0],[0.5,0,0],[0.75,0,0],[1,0.25,0],[1,0.5,0],[1,0.75,0],[0.75,1,0],[0.5,1,0],[0.25,1,0],[0,0.75,0],[0,0.5,0],[0,0.25,0]];verticalLabelPosition=bottom;html=1;verticalAlign=top;aspect=fixed;align=center;pointerEvents=1;shape=mxgraph.cisco19.rect;prIcon=l2_switch;fillColor=#FAFAFA;strokeColor=#005073;" vertex="1" parent="1">
          <mxGeometry x="565" y="-1455" width="50" height="50" as="geometry" />
        </mxCell>
        <mxCell id="chh-d9PAMTH2HjGcglh3-20" value="" style="sketch=0;points=[[0.015,0.015,0],[0.985,0.015,0],[0.985,0.985,0],[0.015,0.985,0],[0.25,0,0],[0.5,0,0],[0.75,0,0],[1,0.25,0],[1,0.5,0],[1,0.75,0],[0.75,1,0],[0.5,1,0],[0.25,1,0],[0,0.75,0],[0,0.5,0],[0,0.25,0]];verticalLabelPosition=bottom;html=1;verticalAlign=top;aspect=fixed;align=center;pointerEvents=1;shape=mxgraph.cisco19.rect;prIcon=l2_switch;fillColor=#FAFAFA;strokeColor=#005073;" vertex="1" parent="1">
          <mxGeometry x="345" y="-1455" width="50" height="50" as="geometry" />
        </mxCell>
        <mxCell id="chh-d9PAMTH2HjGcglh3-26" style="edgeStyle=orthogonalEdgeStyle;rounded=0;orthogonalLoop=1;jettySize=auto;html=1;exitX=1;exitY=0.75;exitDx=0;exitDy=0;exitPerimeter=0;" edge="1" parent="1" source="chh-d9PAMTH2HjGcglh3-21">
          <mxGeometry relative="1" as="geometry">
            <mxPoint x="175" y="-1410" as="targetPoint" />
          </mxGeometry>
        </mxCell>
        <mxCell id="chh-d9PAMTH2HjGcglh3-21" value="" style="sketch=0;points=[[0.015,0.015,0],[0.985,0.015,0],[0.985,0.985,0],[0.015,0.985,0],[0.25,0,0],[0.5,0,0],[0.75,0,0],[1,0.25,0],[1,0.5,0],[1,0.75,0],[0.75,1,0],[0.5,1,0],[0.25,1,0],[0,0.75,0],[0,0.5,0],[0,0.25,0]];verticalLabelPosition=bottom;html=1;verticalAlign=top;aspect=fixed;align=center;pointerEvents=1;shape=mxgraph.cisco19.rect;prIcon=l2_switch;fillColor=#FAFAFA;strokeColor=#005073;" vertex="1" parent="1">
          <mxGeometry x="135" y="-1445" width="50" height="50" as="geometry" />
        </mxCell>
        <mxCell id="chh-d9PAMTH2HjGcglh3-27" value="" style="sketch=0;points=[[0.5,0,0],[1,0.5,0],[0.5,1,0],[0,0.5,0],[0.145,0.145,0],[0.8555,0.145,0],[0.855,0.8555,0],[0.145,0.855,0]];verticalLabelPosition=bottom;html=1;verticalAlign=top;aspect=fixed;align=center;pointerEvents=1;shape=mxgraph.cisco19.rect;prIcon=router;fillColor=#FAFAFA;strokeColor=#005073;" vertex="1" parent="1">
          <mxGeometry x="1180" y="-2125" width="50" height="50" as="geometry" />
        </mxCell>
        <mxCell id="chh-d9PAMTH2HjGcglh3-28" value="" style="sketch=0;points=[[0.5,0,0],[1,0.5,0],[0.5,1,0],[0,0.5,0],[0.145,0.145,0],[0.8555,0.145,0],[0.855,0.8555,0],[0.145,0.855,0]];verticalLabelPosition=bottom;html=1;verticalAlign=top;aspect=fixed;align=center;pointerEvents=1;shape=mxgraph.cisco19.rect;prIcon=router;fillColor=#FAFAFA;strokeColor=#005073;" vertex="1" parent="1">
          <mxGeometry x="1335" y="-1995" width="50" height="50" as="geometry" />
        </mxCell>
        <mxCell id="chh-d9PAMTH2HjGcglh3-29" value="" style="sketch=0;points=[[0.5,0,0],[1,0.5,0],[0.5,1,0],[0,0.5,0],[0.145,0.145,0],[0.8555,0.145,0],[0.855,0.8555,0],[0.145,0.855,0]];verticalLabelPosition=bottom;html=1;verticalAlign=top;aspect=fixed;align=center;pointerEvents=1;shape=mxgraph.cisco19.rect;prIcon=router;fillColor=#FAFAFA;strokeColor=#005073;" vertex="1" parent="1">
          <mxGeometry x="1030" y="-1995" width="50" height="50" as="geometry" />
        </mxCell>
        <mxCell id="chh-d9PAMTH2HjGcglh3-30" value="" style="sketch=0;points=[[0.5,0,0],[1,0.5,0],[0.5,1,0],[0,0.5,0],[0.145,0.145,0],[0.8555,0.145,0],[0.855,0.8555,0],[0.145,0.855,0]];verticalLabelPosition=bottom;html=1;verticalAlign=top;aspect=fixed;align=center;pointerEvents=1;shape=mxgraph.cisco19.rect;prIcon=router;fillColor=#FAFAFA;strokeColor=#005073;" vertex="1" parent="1">
          <mxGeometry x="1050" y="-1810" width="55" height="55" as="geometry" />
        </mxCell>
        <mxCell id="chh-d9PAMTH2HjGcglh3-31" value="" style="sketch=0;points=[[0.5,0,0],[1,0.5,0],[0.5,1,0],[0,0.5,0],[0.145,0.145,0],[0.8555,0.145,0],[0.855,0.8555,0],[0.145,0.855,0]];verticalLabelPosition=bottom;html=1;verticalAlign=top;aspect=fixed;align=center;pointerEvents=1;shape=mxgraph.cisco19.rect;prIcon=router;fillColor=#FAFAFA;strokeColor=#005073;" vertex="1" parent="1">
          <mxGeometry x="1360" y="-1815" width="50" height="50" as="geometry" />
        </mxCell>
        <mxCell id="chh-d9PAMTH2HjGcglh3-32" value="" style="sketch=0;points=[[0.015,0.015,0],[0.985,0.015,0],[0.985,0.985,0],[0.015,0.985,0],[0.25,0,0],[0.5,0,0],[0.75,0,0],[1,0.25,0],[1,0.5,0],[1,0.75,0],[0.75,1,0],[0.5,1,0],[0.25,1,0],[0,0.75,0],[0,0.5,0],[0,0.25,0]];verticalLabelPosition=bottom;html=1;verticalAlign=top;aspect=fixed;align=center;pointerEvents=1;shape=mxgraph.cisco19.rect;prIcon=l3_switch;fillColor=#FAFAFA;strokeColor=#005073;" vertex="1" parent="1">
          <mxGeometry x="985" y="-1630" width="50" height="50" as="geometry" />
        </mxCell>
        <mxCell id="chh-d9PAMTH2HjGcglh3-33" value="" style="sketch=0;points=[[0.015,0.015,0],[0.985,0.015,0],[0.985,0.985,0],[0.015,0.985,0],[0.25,0,0],[0.5,0,0],[0.75,0,0],[1,0.25,0],[1,0.5,0],[1,0.75,0],[0.75,1,0],[0.5,1,0],[0.25,1,0],[0,0.75,0],[0,0.5,0],[0,0.25,0]];verticalLabelPosition=bottom;html=1;verticalAlign=top;aspect=fixed;align=center;pointerEvents=1;shape=mxgraph.cisco19.rect;prIcon=l3_switch;fillColor=#FAFAFA;strokeColor=#005073;" vertex="1" parent="1">
          <mxGeometry x="1405" y="-1620" width="50" height="50" as="geometry" />
        </mxCell>
        <mxCell id="chh-d9PAMTH2HjGcglh3-34" value="" style="sketch=0;points=[[0.015,0.015,0],[0.985,0.015,0],[0.985,0.985,0],[0.015,0.985,0],[0.25,0,0],[0.5,0,0],[0.75,0,0],[1,0.25,0],[1,0.5,0],[1,0.75,0],[0.75,1,0],[0.5,1,0],[0.25,1,0],[0,0.75,0],[0,0.5,0],[0,0.25,0]];verticalLabelPosition=bottom;html=1;verticalAlign=top;aspect=fixed;align=center;pointerEvents=1;shape=mxgraph.cisco19.rect;prIcon=l2_switch;fillColor=#FAFAFA;strokeColor=#005073;" vertex="1" parent="1">
          <mxGeometry x="900" y="-1445" width="50" height="50" as="geometry" />
        </mxCell>
        <mxCell id="chh-d9PAMTH2HjGcglh3-35" value="" style="sketch=0;points=[[0.015,0.015,0],[0.985,0.015,0],[0.985,0.985,0],[0.015,0.985,0],[0.25,0,0],[0.5,0,0],[0.75,0,0],[1,0.25,0],[1,0.5,0],[1,0.75,0],[0.75,1,0],[0.5,1,0],[0.25,1,0],[0,0.75,0],[0,0.5,0],[0,0.25,0]];verticalLabelPosition=bottom;html=1;verticalAlign=top;aspect=fixed;align=center;pointerEvents=1;shape=mxgraph.cisco19.rect;prIcon=l2_switch;fillColor=#FAFAFA;strokeColor=#005073;" vertex="1" parent="1">
          <mxGeometry x="1090" y="-1450" width="50" height="50" as="geometry" />
        </mxCell>
        <mxCell id="chh-d9PAMTH2HjGcglh3-38" style="edgeStyle=orthogonalEdgeStyle;rounded=0;orthogonalLoop=1;jettySize=auto;html=1;exitX=0.75;exitY=1;exitDx=0;exitDy=0;exitPerimeter=0;" edge="1" parent="1" source="chh-d9PAMTH2HjGcglh3-36">
          <mxGeometry relative="1" as="geometry">
            <mxPoint x="1365" y="-1400" as="targetPoint" />
          </mxGeometry>
        </mxCell>
        <mxCell id="chh-d9PAMTH2HjGcglh3-36" value="" style="sketch=0;points=[[0.015,0.015,0],[0.985,0.015,0],[0.985,0.985,0],[0.015,0.985,0],[0.25,0,0],[0.5,0,0],[0.75,0,0],[1,0.25,0],[1,0.5,0],[1,0.75,0],[0.75,1,0],[0.5,1,0],[0.25,1,0],[0,0.75,0],[0,0.5,0],[0,0.25,0]];verticalLabelPosition=bottom;html=1;verticalAlign=top;aspect=fixed;align=center;pointerEvents=1;shape=mxgraph.cisco19.rect;prIcon=l2_switch;fillColor=#FAFAFA;strokeColor=#005073;" vertex="1" parent="1">
          <mxGeometry x="1325" y="-1440" width="50" height="50" as="geometry" />
        </mxCell>
        <mxCell id="chh-d9PAMTH2HjGcglh3-37" value="" style="sketch=0;points=[[0.015,0.015,0],[0.985,0.015,0],[0.985,0.985,0],[0.015,0.985,0],[0.25,0,0],[0.5,0,0],[0.75,0,0],[1,0.25,0],[1,0.5,0],[1,0.75,0],[0.75,1,0],[0.5,1,0],[0.25,1,0],[0,0.75,0],[0,0.5,0],[0,0.25,0]];verticalLabelPosition=bottom;html=1;verticalAlign=top;aspect=fixed;align=center;pointerEvents=1;shape=mxgraph.cisco19.rect;prIcon=l2_switch;fillColor=#FAFAFA;strokeColor=#005073;" vertex="1" parent="1">
          <mxGeometry x="1465" y="-1445" width="50" height="50" as="geometry" />
        </mxCell>
        <mxCell id="chh-d9PAMTH2HjGcglh3-91" style="edgeStyle=orthogonalEdgeStyle;rounded=0;orthogonalLoop=1;jettySize=auto;html=1;" edge="1" parent="1" source="chh-d9PAMTH2HjGcglh3-44" target="chh-d9PAMTH2HjGcglh3-72">
          <mxGeometry relative="1" as="geometry" />
        </mxCell>
        <mxCell id="chh-d9PAMTH2HjGcglh3-44" value="" style="shape=mxgraph.networks2.icon;aspect=fixed;fillColor=#a20025;strokeColor=#6F0000;network2IconShadow=1;network2bgFillColor=none;network2Icon=mxgraph.networks2.firewall;network2IconXOffset=0.0001;network2IconYOffset=0.0001;network2IconW=1;network2IconH=0.608;direction=east;fontColor=#ffffff;" vertex="1" parent="1">
          <mxGeometry x="810" y="-2335" width="95" height="57.76" as="geometry" />
        </mxCell>
        <mxCell id="chh-d9PAMTH2HjGcglh3-55" style="edgeStyle=orthogonalEdgeStyle;rounded=0;orthogonalLoop=1;jettySize=auto;html=1;entryX=0.652;entryY=0.66;entryDx=0;entryDy=0;entryPerimeter=0;" edge="1" parent="1" source="chh-d9PAMTH2HjGcglh3-29" target="chh-d9PAMTH2HjGcglh3-27">
          <mxGeometry relative="1" as="geometry" />
        </mxCell>
        <mxCell id="chh-d9PAMTH2HjGcglh3-56" style="edgeStyle=orthogonalEdgeStyle;rounded=0;orthogonalLoop=1;jettySize=auto;html=1;entryX=0.652;entryY=0.96;entryDx=0;entryDy=0;entryPerimeter=0;" edge="1" parent="1" source="chh-d9PAMTH2HjGcglh3-28" target="chh-d9PAMTH2HjGcglh3-27">
          <mxGeometry relative="1" as="geometry" />
        </mxCell>
        <mxCell id="chh-d9PAMTH2HjGcglh3-57" style="edgeStyle=orthogonalEdgeStyle;rounded=0;orthogonalLoop=1;jettySize=auto;html=1;entryX=0.392;entryY=0.64;entryDx=0;entryDy=0;entryPerimeter=0;" edge="1" parent="1" source="chh-d9PAMTH2HjGcglh3-29" target="chh-d9PAMTH2HjGcglh3-30">
          <mxGeometry relative="1" as="geometry">
            <Array as="points">
              <mxPoint x="1055" y="-1877" />
              <mxPoint x="1060" y="-1877" />
              <mxPoint x="1060" y="-1775" />
            </Array>
          </mxGeometry>
        </mxCell>
        <mxCell id="chh-d9PAMTH2HjGcglh3-58" style="edgeStyle=orthogonalEdgeStyle;rounded=0;orthogonalLoop=1;jettySize=auto;html=1;entryX=0.572;entryY=0.36;entryDx=0;entryDy=0;entryPerimeter=0;" edge="1" parent="1" source="chh-d9PAMTH2HjGcglh3-28" target="chh-d9PAMTH2HjGcglh3-31">
          <mxGeometry relative="1" as="geometry">
            <Array as="points">
              <mxPoint x="1385" y="-1880" />
              <mxPoint x="1389" y="-1880" />
            </Array>
          </mxGeometry>
        </mxCell>
        <mxCell id="chh-d9PAMTH2HjGcglh3-59" style="edgeStyle=orthogonalEdgeStyle;rounded=0;orthogonalLoop=1;jettySize=auto;html=1;entryX=0.892;entryY=0.68;entryDx=0;entryDy=0;entryPerimeter=0;" edge="1" parent="1" source="chh-d9PAMTH2HjGcglh3-30" target="chh-d9PAMTH2HjGcglh3-31">
          <mxGeometry relative="1" as="geometry" />
        </mxCell>
        <mxCell id="chh-d9PAMTH2HjGcglh3-60" style="edgeStyle=orthogonalEdgeStyle;rounded=0;orthogonalLoop=1;jettySize=auto;html=1;entryX=0.432;entryY=0.44;entryDx=0;entryDy=0;entryPerimeter=0;" edge="1" parent="1" source="chh-d9PAMTH2HjGcglh3-30" target="chh-d9PAMTH2HjGcglh3-32">
          <mxGeometry relative="1" as="geometry" />
        </mxCell>
        <mxCell id="chh-d9PAMTH2HjGcglh3-61" style="edgeStyle=orthogonalEdgeStyle;rounded=0;orthogonalLoop=1;jettySize=auto;html=1;entryX=0.292;entryY=0.32;entryDx=0;entryDy=0;entryPerimeter=0;" edge="1" parent="1" source="chh-d9PAMTH2HjGcglh3-31" target="chh-d9PAMTH2HjGcglh3-33">
          <mxGeometry relative="1" as="geometry" />
        </mxCell>
        <mxCell id="chh-d9PAMTH2HjGcglh3-62" style="edgeStyle=orthogonalEdgeStyle;rounded=0;orthogonalLoop=1;jettySize=auto;html=1;entryX=0.332;entryY=0.46;entryDx=0;entryDy=0;entryPerimeter=0;" edge="1" parent="1" source="chh-d9PAMTH2HjGcglh3-32" target="chh-d9PAMTH2HjGcglh3-34">
          <mxGeometry relative="1" as="geometry" />
        </mxCell>
        <mxCell id="chh-d9PAMTH2HjGcglh3-63" style="edgeStyle=orthogonalEdgeStyle;rounded=0;orthogonalLoop=1;jettySize=auto;html=1;entryX=0.392;entryY=0.16;entryDx=0;entryDy=0;entryPerimeter=0;" edge="1" parent="1" source="chh-d9PAMTH2HjGcglh3-32" target="chh-d9PAMTH2HjGcglh3-35">
          <mxGeometry relative="1" as="geometry" />
        </mxCell>
        <mxCell id="chh-d9PAMTH2HjGcglh3-64" style="edgeStyle=orthogonalEdgeStyle;rounded=0;orthogonalLoop=1;jettySize=auto;html=1;entryX=0.372;entryY=0.42;entryDx=0;entryDy=0;entryPerimeter=0;" edge="1" parent="1" source="chh-d9PAMTH2HjGcglh3-33" target="chh-d9PAMTH2HjGcglh3-36">
          <mxGeometry relative="1" as="geometry" />
        </mxCell>
        <mxCell id="chh-d9PAMTH2HjGcglh3-65" style="edgeStyle=orthogonalEdgeStyle;rounded=0;orthogonalLoop=1;jettySize=auto;html=1;entryX=0.692;entryY=0.46;entryDx=0;entryDy=0;entryPerimeter=0;" edge="1" parent="1" source="chh-d9PAMTH2HjGcglh3-33" target="chh-d9PAMTH2HjGcglh3-37">
          <mxGeometry relative="1" as="geometry" />
        </mxCell>
        <mxCell id="chh-d9PAMTH2HjGcglh3-66" style="edgeStyle=orthogonalEdgeStyle;rounded=0;orthogonalLoop=1;jettySize=auto;html=1;entryX=0;entryY=0.5;entryDx=0;entryDy=0;entryPerimeter=0;" edge="1" parent="1" source="chh-d9PAMTH2HjGcglh3-8" target="chh-d9PAMTH2HjGcglh3-16">
          <mxGeometry relative="1" as="geometry">
            <Array as="points">
              <mxPoint x="615" y="-1540" />
            </Array>
          </mxGeometry>
        </mxCell>
        <mxCell id="chh-d9PAMTH2HjGcglh3-67" style="edgeStyle=orthogonalEdgeStyle;rounded=0;orthogonalLoop=1;jettySize=auto;html=1;entryX=0.252;entryY=0.26;entryDx=0;entryDy=0;entryPerimeter=0;" edge="1" parent="1" source="chh-d9PAMTH2HjGcglh3-7" target="chh-d9PAMTH2HjGcglh3-15">
          <mxGeometry relative="1" as="geometry">
            <Array as="points">
              <mxPoint x="245" y="-1607" />
              <mxPoint x="240" y="-1607" />
              <mxPoint x="240" y="-1557" />
            </Array>
          </mxGeometry>
        </mxCell>
        <mxCell id="chh-d9PAMTH2HjGcglh3-68" style="edgeStyle=orthogonalEdgeStyle;rounded=0;orthogonalLoop=1;jettySize=auto;html=1;entryX=0.672;entryY=0.54;entryDx=0;entryDy=0;entryPerimeter=0;" edge="1" parent="1" source="chh-d9PAMTH2HjGcglh3-15" target="chh-d9PAMTH2HjGcglh3-21">
          <mxGeometry relative="1" as="geometry" />
        </mxCell>
        <mxCell id="chh-d9PAMTH2HjGcglh3-69" style="edgeStyle=orthogonalEdgeStyle;rounded=0;orthogonalLoop=1;jettySize=auto;html=1;entryX=0.5;entryY=0;entryDx=0;entryDy=0;entryPerimeter=0;" edge="1" parent="1" source="chh-d9PAMTH2HjGcglh3-15" target="chh-d9PAMTH2HjGcglh3-20">
          <mxGeometry relative="1" as="geometry" />
        </mxCell>
        <mxCell id="chh-d9PAMTH2HjGcglh3-70" style="edgeStyle=orthogonalEdgeStyle;rounded=0;orthogonalLoop=1;jettySize=auto;html=1;entryX=0.232;entryY=0.42;entryDx=0;entryDy=0;entryPerimeter=0;" edge="1" parent="1" source="chh-d9PAMTH2HjGcglh3-16" target="chh-d9PAMTH2HjGcglh3-19">
          <mxGeometry relative="1" as="geometry" />
        </mxCell>
        <mxCell id="chh-d9PAMTH2HjGcglh3-71" style="edgeStyle=orthogonalEdgeStyle;rounded=0;orthogonalLoop=1;jettySize=auto;html=1;entryX=0.552;entryY=0.28;entryDx=0;entryDy=0;entryPerimeter=0;" edge="1" parent="1" source="chh-d9PAMTH2HjGcglh3-16" target="chh-d9PAMTH2HjGcglh3-17">
          <mxGeometry relative="1" as="geometry" />
        </mxCell>
        <mxCell id="chh-d9PAMTH2HjGcglh3-72" value="" style="shape=mxgraph.networks2.icon;aspect=fixed;fillColor=#EDEDED;strokeColor=#000000;gradientColor=#5B6163;network2IconShadow=1;network2bgFillColor=none;network2Icon=mxgraph.networks2.globe;network2IconW=1;network2IconH=1;" vertex="1" parent="1">
          <mxGeometry x="990" y="-2665" width="250" height="250" as="geometry" />
        </mxCell>
        <mxCell id="chh-d9PAMTH2HjGcglh3-77" style="edgeStyle=orthogonalEdgeStyle;rounded=0;orthogonalLoop=1;jettySize=auto;html=1;entryX=0.592;entryY=0.52;entryDx=0;entryDy=0;entryPerimeter=0;" edge="1" parent="1" source="chh-d9PAMTH2HjGcglh3-7" target="chh-d9PAMTH2HjGcglh3-8">
          <mxGeometry relative="1" as="geometry" />
        </mxCell>
        <mxCell id="chh-d9PAMTH2HjGcglh3-80" value="" style="sketch=0;points=[[0.5,0,0],[1,0.5,0],[0.5,1,0],[0,0.5,0],[0.145,0.145,0],[0.8555,0.145,0],[0.855,0.8555,0],[0.145,0.855,0]];verticalLabelPosition=bottom;html=1;verticalAlign=top;aspect=fixed;align=center;pointerEvents=1;shape=mxgraph.cisco19.rect;prIcon=router;fillColor=#FAFAFA;strokeColor=#005073;" vertex="1" parent="1">
          <mxGeometry x="820" y="-2125" width="50" height="50" as="geometry" />
        </mxCell>
        <mxCell id="chh-d9PAMTH2HjGcglh3-82" style="edgeStyle=orthogonalEdgeStyle;rounded=0;orthogonalLoop=1;jettySize=auto;html=1;entryX=0.352;entryY=0.58;entryDx=0;entryDy=0;entryPerimeter=0;" edge="1" parent="1" source="chh-d9PAMTH2HjGcglh3-80" target="chh-d9PAMTH2HjGcglh3-1">
          <mxGeometry relative="1" as="geometry" />
        </mxCell>
        <mxCell id="chh-d9PAMTH2HjGcglh3-83" style="edgeStyle=orthogonalEdgeStyle;rounded=0;orthogonalLoop=1;jettySize=auto;html=1;entryX=0.372;entryY=0.58;entryDx=0;entryDy=0;entryPerimeter=0;" edge="1" parent="1" source="chh-d9PAMTH2HjGcglh3-80" target="chh-d9PAMTH2HjGcglh3-27">
          <mxGeometry relative="1" as="geometry" />
        </mxCell>
        <mxCell id="chh-d9PAMTH2HjGcglh3-88" style="edgeStyle=orthogonalEdgeStyle;rounded=0;orthogonalLoop=1;jettySize=auto;html=1;entryX=0.632;entryY=0.24;entryDx=0;entryDy=0;entryPerimeter=0;" edge="1" parent="1" source="chh-d9PAMTH2HjGcglh3-3" target="chh-d9PAMTH2HjGcglh3-2">
          <mxGeometry relative="1" as="geometry">
            <Array as="points">
              <mxPoint x="602" y="-1955" />
            </Array>
          </mxGeometry>
        </mxCell>
        <mxCell id="chh-d9PAMTH2HjGcglh3-89" style="edgeStyle=orthogonalEdgeStyle;rounded=0;orthogonalLoop=1;jettySize=auto;html=1;entryX=0.492;entryY=0.76;entryDx=0;entryDy=0;entryPerimeter=0;" edge="1" parent="1" source="chh-d9PAMTH2HjGcglh3-3" target="chh-d9PAMTH2HjGcglh3-1">
          <mxGeometry relative="1" as="geometry" />
        </mxCell>
        <mxCell id="chh-d9PAMTH2HjGcglh3-90" style="edgeStyle=orthogonalEdgeStyle;rounded=0;orthogonalLoop=1;jettySize=auto;html=1;entryX=0.792;entryY=0.32;entryDx=0;entryDy=0;entryPerimeter=0;" edge="1" parent="1" source="chh-d9PAMTH2HjGcglh3-44" target="chh-d9PAMTH2HjGcglh3-80">
          <mxGeometry relative="1" as="geometry" />
        </mxCell>
      </root>
    </mxGraphModel>
  </diagram>
</mxfile>
